HIERARCHY
ROOT Pelvis
{
	OFFSET 0.000000 0.000000 0.000000
	CHANNELS 6 Xposition Yposition Zposition Xrotation Yrotation Zrotation
	JOINT LeftUpLeg_virtual
	{
		OFFSET 0.000000 0.000000 0.000000
		CHANNELS 3 Xrotation Yrotation Zrotation
		JOINT LeftUpLeg
		{
			OFFSET 18.735201 -5.666702 -4.541200
			CHANNELS 3 Xrotation Yrotation Zrotation
			JOINT LeftLeg
			{
				OFFSET -0.021200 -31.938179 0.493100
				CHANNELS 3 Xrotation Yrotation Zrotation
				JOINT LeftFoot
				{
					OFFSET 0.021200 -31.938179 -4.336299
					CHANNELS 3 Xrotation Yrotation Zrotation
					JOINT LeftToeBase
					{
						OFFSET 0.943001 -26.722000 15.023500
						CHANNELS 3 Xrotation Yrotation Zrotation
						End Site
						{
							OFFSET 0 0 0
						}
					}
				}
			}
		}
	}
	JOINT RightUpLeg_virtual
	{
		OFFSET 0.000000 0.000000 0.000000
		CHANNELS 3 Xrotation Yrotation Zrotation
		JOINT RightUpLeg
		{
			OFFSET -18.735201 -5.666702 -4.541200
			CHANNELS 3 Xrotation Yrotation Zrotation
			JOINT RightLeg
			{
				OFFSET 0.018946 -31.938133 0.493100
				CHANNELS 3 Xrotation Yrotation Zrotation
				JOINT RightFoot
				{
					OFFSET -0.018946 -31.938126 -4.336299
					CHANNELS 3 Xrotation Yrotation Zrotation
					JOINT RightToeBase
					{
						OFFSET -0.943001 -26.722004 15.023500
						CHANNELS 3 Xrotation Yrotation Zrotation
						End Site
						{
							OFFSET 0 0 0
						}
					}
				}
			}
		}
	}
	JOINT Hips_virtual
	{
		OFFSET 0.000000 0.000000 0.000000
		CHANNELS 3 Xrotation Yrotation Zrotation
		JOINT Hips
		{
			OFFSET -0.000000 -0.000000 -0.000000
			CHANNELS 3 Xrotation Yrotation Zrotation
			JOINT Spine
			{
				OFFSET 0.000000 10.199997 -0.299500
				CHANNELS 3 Xrotation Yrotation Zrotation
				JOINT Spine1
				{
					OFFSET 0.000000 11.900002 -1.516600
					CHANNELS 3 Xrotation Yrotation Zrotation
					JOINT Spine2
					{
						OFFSET 0.000000 13.600006 -2.842500
						CHANNELS 3 Xrotation Yrotation Zrotation
						JOINT Neck_virtual
						{
							OFFSET 0.000000 0.000000 0.000000
							CHANNELS 3 Xrotation Yrotation Zrotation
							JOINT Neck
							{
								OFFSET 0.000000 9.624100 -2.890100
								CHANNELS 3 Xrotation Yrotation Zrotation
								JOINT Head
								{
									OFFSET 0.000000 14.068802 -1.351900
									CHANNELS 3 Xrotation Yrotation Zrotation
									End Site
									{
										OFFSET 0 0 0
									}
								}
							}
						}
						JOINT LeftShoulder_virtual
						{
							OFFSET 0.000000 0.000000 0.000000
							CHANNELS 3 Xrotation Yrotation Zrotation
							JOINT LeftShoulder
							{
								OFFSET 15.263000 10.923401 -0.547700
								CHANNELS 3 Xrotation Yrotation Zrotation
								JOINT LeftArm
								{
									OFFSET 25.438599 -2.830597 -13.032500
									CHANNELS 3 Xrotation Yrotation Zrotation
									JOINT LeftForeArm
									{
										OFFSET 29.960503 0.000000 0.000000
										CHANNELS 3 Xrotation Yrotation Zrotation
										JOINT LeftHand
										{
											OFFSET 27.849251 0.000000 0.000000
											CHANNELS 3 Xrotation Yrotation Zrotation
											End Site
											{
												OFFSET 0 0 0
											}
										}
									}
								}
							}
						}
						JOINT RightShoulder_virtual
						{
							OFFSET 0.000000 0.000000 0.000000
							CHANNELS 3 Xrotation Yrotation Zrotation
							JOINT RightShoulder
							{
								OFFSET -15.263000 10.923401 -0.547700
								CHANNELS 3 Xrotation Yrotation Zrotation
								JOINT RightArm
								{
									OFFSET -25.438599 -2.830597 -13.032500
									CHANNELS 3 Xrotation Yrotation Zrotation
									JOINT RightForeArm
									{
										OFFSET -29.960503 0.000000 0.000000
										CHANNELS 3 Xrotation Yrotation Zrotation
										JOINT RightHand
										{
											OFFSET -27.849251 0.000000 0.000000
											CHANNELS 3 Xrotation Yrotation Zrotation
											End Site
											{
												OFFSET 0 0 0
											}
										}
									}
								}
							}
						}
					}
				}
			}
		}
	}
}
MOTION
Frames: 13
Frame Time: 0.03333333
-4.330107 65.232666 9.820938 0.000000 0.000000 0.000000 37.126453 -53.990306 30.006671 -78.915166 -12.508389 30.423558 96.664409 -15.252504 0.502781 -34.643857 3.045177 -15.981912 0.000000 0.000000 0.000000 37.126453 -53.990306 30.006671 -76.246092 1.813829 -36.718622 97.916554 10.996045 1.781466 -37.353871 -4.738696 14.259622 0.000000 0.000000 0.000000 37.126453 -53.990306 30.006671 0.000000 0.000003 0.000000 8.813059 -2.265206 -2.850989 3.265680 -3.494256 -2.572571 0.000000 0.000000 0.000000 3.249615 -3.433789 -2.640590 -1.328389 3.244533 -1.270408 0.000000 0.000000 0.000000 3.249615 -3.433789 -2.640590 5.075856 -7.804276 -6.702657 -62.677805 3.445338 -22.584347 20.881948 -30.367769 16.998459 0.000000 0.000000 0.000000 3.249615 -3.433789 -2.640590 5.114729 8.674752 15.430166 -11.369390 0.763085 49.913602 -17.712890 36.414734 7.487007 0.000000 0.000000 0.000000 
-3.817801 62.295578 9.083778 0.000000 0.000000 0.000000 38.669119 -53.573603 30.896675 -83.725231 -16.432284 31.260762 101.679824 -16.667917 0.319713 -34.822077 3.115299 -16.762664 0.000000 0.000000 0.000000 38.669119 -53.573603 30.896675 -81.235743 3.837624 -37.666277 103.690133 12.626268 1.888697 -38.429568 -4.396519 13.135740 0.000000 0.000000 0.000000 38.669119 -53.573603 30.896675 0.000000 0.000000 -0.000001 8.242720 -2.138337 -2.643667 3.591993 -3.361492 -2.519244 0.000000 0.000000 0.000000 3.576402 -3.306027 -2.583289 -1.117914 3.395591 -1.431223 0.000000 0.000000 0.000000 3.576402 -3.306027 -2.583289 5.547265 -8.009826 -6.640975 -64.034260 1.869204 -22.502845 21.515670 -29.366791 16.956530 0.000000 0.000000 0.000000 3.576402 -3.306027 -2.583289 5.583213 9.006405 15.903923 -10.769850 1.892028 48.290838 -18.711332 38.477232 8.552176 0.000000 0.000000 0.000000 
-3.315886 59.316162 8.350021 0.000000 0.000000 0.000000 39.815830 -53.313718 31.593959 -88.280489 -20.507578 32.050632 106.356325 -18.278916 0.109737 -34.566597 3.113124 -17.684089 0.000000 0.000000 0.000000 39.815830 -53.313718 31.593959 -86.311898 6.521162 -38.721674 109.279441 14.743307 1.959927 -38.280717 -4.277524 12.264692 0.000000 0.000000 0.000000 39.815830 -53.313718 31.593959 0.000001 -0.000001 0.000001 7.663173 -1.976575 -2.443579 3.920435 -3.180448 -2.492635 0.000000 0.000000 0.000000 3.905910 -3.129790 -2.551252 -0.877425 3.546155 -1.608293 0.000000 0.000000 0.000000 3.905910 -3.129790 -2.551252 5.951876 -8.061980 -6.968058 -65.208560 0.226330 -22.718871 22.758002 -28.220310 17.107337 0.000000 0.000000 0.000000 3.905910 -3.129790 -2.551252 6.023419 9.139929 16.277676 -9.808077 2.868990 46.606356 -19.217615 39.891392 9.114133 0.000000 0.000000 0.000000 
-2.814318 56.432388 7.690025 0.000000 0.000000 0.000000 40.927982 -53.219509 32.359862 -92.561050 -24.628088 32.784157 110.572491 -19.901074 -0.103706 -33.955135 3.058849 -18.749359 0.000000 0.000000 0.000000 40.927982 -53.219509 32.359862 -91.888324 9.827236 -39.082742 114.583738 16.220400 1.906444 -36.599272 -4.127479 11.575231 0.000000 0.000000 0.000000 40.927982 -53.219509 32.359862 0.000001 -0.000002 0.000000 7.050640 -1.783293 -2.282400 4.215034 -2.970464 -2.509430 0.000000 0.000000 0.000000 4.201918 -2.924080 -2.561442 -0.646310 3.719912 -1.777279 0.000000 0.000000 0.000000 4.201918 -2.924080 -2.561442 6.284072 -7.922271 -6.979372 -66.176911 -0.958016 -23.215140 24.010623 -26.960179 17.250397 0.000000 0.000000 0.000000 4.201918 -2.924080 -2.561442 6.382116 9.235167 16.656495 -8.533652 3.718793 44.763677 -19.327574 40.249550 9.261572 0.000000 0.000000 0.000000 
-2.383461 53.770660 7.108444 0.000000 0.000000 0.000000 41.942259 -53.221271 33.058505 -96.454306 -28.721827 33.519679 114.157753 -21.527310 -0.315484 -32.992679 2.888890 -19.926331 0.000000 0.000000 0.000000 41.942259 -53.221271 33.058505 -97.545811 13.102347 -38.826221 119.306848 17.139252 1.752125 -34.192709 -4.021251 10.979953 0.000000 0.000000 0.000000 41.942259 -53.221271 33.058505 -0.000001 -0.000001 -0.000000 6.381643 -1.586364 -2.154125 4.432597 -2.761275 -2.546492 0.000000 0.000000 0.000000 4.421212 -2.718945 -2.591100 -0.403382 3.898365 -1.913022 0.000000 0.000000 0.000000 4.421212 -2.718945 -2.591100 6.537865 -7.623669 -7.157073 -66.824734 -2.274232 -23.751570 25.131097 -25.456426 17.107170 0.000000 0.000000 0.000000 4.421212 -2.718945 -2.591100 6.643927 9.613431 17.290339 -7.123561 3.986105 42.502741 -19.158273 39.848690 9.311179 0.000000 0.000000 0.000000 
-2.002640 51.423691 6.554676 0.000000 0.000000 0.000000 42.364685 -53.319032 33.223024 -99.965016 -32.641187 34.211755 116.983683 -23.121148 -0.511566 -31.458854 2.421447 -21.110544 0.000000 0.000000 0.000000 42.364685 -53.319032 33.223024 -102.712173 16.367647 -38.365914 123.293111 18.026648 1.590287 -31.146636 -4.172512 10.946674 0.000000 0.000000 0.000000 42.364685 -53.319032 33.223024 0.000000 -0.000002 0.000001 5.800875 -1.416714 -2.039166 4.751666 -2.597979 -2.608519 0.000000 0.000000 0.000000 4.741893 -2.559217 -2.645826 -0.181418 4.083487 -1.987523 0.000000 0.000000 0.000000 4.741893 -2.559217 -2.645826 6.828888 -7.386657 -7.244338 -67.452004 -3.471928 -24.383227 26.252373 -24.034124 16.888992 0.000000 0.000000 0.000000 4.741893 -2.559217 -2.645826 6.916399 10.069568 18.283204 -6.044942 4.237603 39.947229 -18.044040 38.801273 8.881837 0.000000 0.000000 0.000000 
-1.643034 49.265518 6.041809 0.000000 0.000000 0.000000 42.568468 -53.449584 33.231001 -103.378567 -36.410823 34.714293 119.292259 -24.591299 -0.677492 -29.530825 1.797342 -22.354273 0.000000 0.000000 0.000000 42.568468 -53.449584 33.231001 -108.033970 19.675113 -37.545338 126.692510 18.708112 1.399484 -27.237469 -4.382765 11.207962 0.000000 0.000000 0.000000 42.568468 -53.449584 33.231001 0.000001 -0.000002 0.000000 5.290048 -1.261667 -1.948891 5.123543 -2.450795 -2.671229 0.000000 0.000000 0.000000 5.115200 -2.415607 -2.701722 0.024018 4.270834 -2.054307 0.000000 0.000000 0.000000 5.115200 -2.415607 -2.701722 7.159121 -7.435079 -7.318983 -68.208687 -4.376790 -24.770784 27.382068 -22.674683 16.743603 0.000000 0.000000 0.000000 5.115200 -2.415607 -2.701722 7.186546 10.572508 19.349209 -5.002886 4.389416 37.270276 -16.348121 37.484973 8.226740 0.000000 0.000000 0.000000 
-1.413994 47.795197 5.550861 0.000000 0.000000 0.000000 42.607355 -53.412574 33.123658 -106.225732 -38.974859 35.075422 120.419350 -25.605522 -0.754957 -27.452967 0.973401 -23.285952 0.000000 0.000000 0.000000 42.607355 -53.412574 33.123658 -112.664688 21.960569 -36.519160 128.968397 18.843440 1.126661 -23.317164 -4.594676 11.498128 0.000000 0.000000 0.000000 42.607355 -53.412574 33.123658 0.000000 0.000000 0.000000 4.837721 -1.131002 -1.831803 5.524288 -2.348608 -2.676020 0.000000 0.000000 0.000000 5.516976 -2.318059 -2.701061 0.218786 4.433206 -2.167061 0.000000 0.000000 0.000000 5.516976 -2.318059 -2.701061 7.576256 -7.354346 -7.652587 -69.102390 -5.498106 -25.440095 28.563805 -21.330642 16.585048 0.000000 0.000000 0.000000 5.516976 -2.318059 -2.701061 7.531861 10.921152 19.936648 -4.193264 4.452573 35.306798 -14.548634 36.126817 7.457502 0.000000 0.000000 0.000000 
-1.267412 46.563148 5.077900 0.000000 0.000000 0.000000 42.639864 -53.251235 32.994701 -108.953846 -41.108381 35.278596 121.075034 -26.444959 -0.798501 -25.331346 0.104780 -24.125319 0.000000 0.000000 0.000000 42.639864 -53.251235 32.994701 -117.073923 23.799852 -35.394307 130.799393 18.738817 0.823087 -19.447388 -4.783479 11.833796 0.000000 0.000000 0.000000 42.639864 -53.251235 32.994701 0.000000 -0.000003 0.000000 4.426141 -1.016897 -1.716991 5.902549 -2.262247 -2.656328 0.000000 0.000000 0.000000 5.896251 -2.236402 -2.677749 0.410753 4.588115 -2.286008 0.000000 0.000000 0.000000 5.896251 -2.236402 -2.677749 7.986596 -7.301488 -8.041644 -69.996277 -6.616941 -26.182956 29.818745 -20.025621 16.422853 0.000000 0.000000 0.000000 5.896251 -2.236402 -2.677749 7.948166 11.184598 20.533331 -3.383257 4.362367 33.345772 -12.952235 34.513680 6.830769 0.000000 0.000000 0.000000 
-1.167444 45.435379 4.638927 0.000000 0.000000 0.000000 42.667440 -53.036706 32.877331 -111.573094 -43.047776 35.375237 121.504530 -26.163830 -0.736947 -23.249670 -1.675185 -25.460111 0.000000 0.000000 0.000000 42.667440 -53.036706 32.877331 -121.378499 25.429050 -34.254573 132.375391 18.567789 0.522339 -15.642670 -4.909389 12.151321 0.000000 0.000000 0.000000 42.667440 -53.036706 32.877331 -0.000001 -0.000001 -0.000000 4.065645 -0.910718 -1.617959 6.272293 -2.170952 -2.656641 0.000000 0.000000 0.000000 6.267222 -2.149096 -2.674440 0.591624 4.746003 -2.377570 0.000000 0.000000 0.000000 6.267222 -2.149096 -2.674440 8.427578 -7.234243 -8.267243 -70.845604 -7.663157 -27.022926 30.958116 -18.834079 16.163219 0.000000 0.000000 0.000000 6.267222 -2.149097 -2.674440 8.331448 11.573966 21.548016 -2.514485 4.038134 30.991717 -11.426743 32.646242 6.251719 0.000000 0.000000 0.000000 
-1.147720 44.703033 4.276546 0.000000 0.000000 0.000000 42.688553 -52.650288 32.822034 -113.798649 -43.963424 35.299992 121.499052 -26.909697 -0.744509 -21.513644 -2.201495 -25.716362 0.000000 0.000000 0.000000 42.688553 -52.650288 32.822034 -124.878999 26.516053 -33.323680 133.421025 18.259923 0.198722 -12.382142 -5.031114 12.419388 0.000000 0.000000 0.000000 42.688553 -52.650288 32.822034 -0.000001 -0.000001 -0.000001 3.739166 -0.820114 -1.554389 6.618858 -2.074420 -2.741263 0.000000 0.000000 0.000000 6.615375 -2.053601 -2.755026 0.747408 4.916792 -2.381880 0.000000 0.000000 0.000000 6.615375 -2.053601 -2.755026 8.857006 -7.258297 -8.203830 -71.279499 -8.691335 -27.804599 31.667677 -17.925063 15.607098 0.000000 0.000000 0.000000 6.615375 -2.053601 -2.755026 8.627039 12.032462 22.859359 -1.652663 3.679328 28.518237 -9.947480 30.693364 5.696324 0.000000 0.000000 0.000000 
-1.181847 44.297646 4.016735 0.000000 0.000000 0.000000 42.659360 -52.160143 32.814421 -115.498062 -44.047094 35.214649 121.252387 -27.311270 -0.714338 -20.207337 -2.729609 -25.681692 0.000000 0.000000 0.000000 42.659360 -52.160143 32.814421 -127.362305 27.216728 -32.803599 134.101106 17.980263 -0.095280 -10.024687 -5.111505 12.525284 0.000000 0.000000 0.000000 42.659360 -52.160143 32.814421 0.000001 0.000001 -0.000000 3.423618 -0.771347 -1.425214 6.859143 -2.042617 -2.710200 0.000000 0.000000 0.000000 6.856838 -2.024155 -2.720302 0.925615 5.077681 -2.437818 0.000000 0.000000 0.000000 6.856838 -2.024155 -2.720302 9.229435 -7.003010 -8.490403 -71.640311 -9.756410 -28.784931 32.991357 -16.896679 15.250306 0.000000 0.000000 0.000000 6.856838 -2.024156 -2.720302 8.861312 12.498726 23.658993 -0.760583 3.372804 26.335311 -8.356133 28.488267 4.955275 0.000000 0.000000 0.000000 
-1.256058 44.102020 3.830223 0.000000 0.000000 0.000000 42.614988 -51.919546 32.750378 -116.349185 -44.042276 35.476993 121.012606 -27.667133 -0.695171 -19.378167 -3.138203 -25.547855 0.000000 0.000000 0.000000 42.614988 -51.919546 32.750378 -128.928495 27.318827 -32.530483 134.485387 17.713407 -0.336952 -8.473304 -5.131604 12.396514 0.000000 0.000000 0.000000 42.614988 -51.919546 32.750378 -0.000002 0.000000 0.000000 3.180791 -0.706389 -1.286039 7.080576 -1.971121 -2.644507 0.000000 0.000000 0.000000 7.079447 -1.955449 -2.652033 1.134247 5.244577 -2.476478 0.000000 0.000000 0.000000 7.079447 -1.955449 -2.652033 9.536801 -6.805351 -8.838894 -72.007836 -10.630459 -29.691010 34.398971 -15.903342 14.916121 0.000000 0.000000 0.000000 7.079447 -1.955449 -2.652033 9.010976 13.143169 24.363399 -0.299834 2.914807 24.258952 -7.573160 25.718020 4.576535 0.000000 0.000000 0.000000 
